<svg width="1702" height="455" viewBox="0 0 1702 455" fill="none" xmlns="http://www.w3.org/2000/svg">
<mask id="path-1-inside-1_2781_17" fill="white">
<path d="M1702 455H0V244C0 109.243 380.558 0 850 0C1319.44 0 1700 109.243 1700 244H1702V455Z"/>
</mask>
<path d="M1702 455H0V244C0 109.243 380.558 0 850 0C1319.44 0 1700 109.243 1700 244H1702V455Z" fill="url(#paint0_linear_2781_17)"/>
<path d="M1702 455V457H1704V455H1702ZM0 455H-2V457H0V455ZM1700 244H1698V246H1700V244ZM1702 244H1704V242H1702V244ZM1702 455V453H0V455V457H1702V455ZM0 455H2V244H0H-2V455H0ZM0 244H2C2 211.321 25.0867 179.75 67.9203 150.679C110.686 121.655 172.7 95.4375 249.511 73.3883C403.106 29.2976 615.411 2 850 2V0V-2C615.147 -2 402.452 25.3236 248.407 69.5436C171.398 91.6497 108.933 118.01 65.6741 147.369C22.4831 176.682 -2 209.3 -2 244H0ZM850 0V2C1084.59 2 1296.89 29.2976 1450.49 73.3883C1527.3 95.4375 1589.31 121.655 1632.08 150.679C1674.91 179.75 1698 211.321 1698 244H1700H1702C1702 209.3 1677.52 176.682 1634.33 147.369C1591.07 118.01 1528.6 91.6497 1451.59 69.5436C1297.55 25.3236 1084.85 -2 850 -2V0ZM1700 244V246H1702V244V242H1700V244ZM1702 244H1700V455H1702H1704V244H1702Z" fill="url(#paint1_linear_2781_17)" mask="url(#path-1-inside-1_2781_17)"/>
<defs>
<linearGradient id="paint0_linear_2781_17" x1="851" y1="0" x2="851" y2="405" gradientUnits="userSpaceOnUse">
<stop offset="0.495192" stop-color="white"/>
<stop offset="1" stop-color="white" stop-opacity="0"/>
</linearGradient>
<linearGradient id="paint1_linear_2781_17" x1="851" y1="0" x2="851" y2="405" gradientUnits="userSpaceOnUse">
<stop/>
<stop offset="0.600962" stop-color="#666666" stop-opacity="0"/>
</linearGradient>
</defs>
</svg>
